<svg xmlns="http://www.w3.org/2000/svg" viewBox="0 0 64 64" role="img" aria-label="Semper">
  <rect width="64" height="64" rx="18" fill="#151515"/>
  <path d="M20 40c3.2 3 7.1 4.5 11.6 4.5 3.2 0 5.7-.7 7.5-2.1 1.8-1.3 2.7-3.1 2.7-5.3 0-1.9-.6-3.4-1.9-4.6-1.3-1.1-3.6-2.1-6.8-2.9l-3.3-.8c-1.8-.5-3.1-.9-3.7-1.4-.7-.5-1-1.2-1-2.1 0-1 .5-1.8 1.4-2.4.9-.6 2.2-.9 3.8-.9 3 0 5.8 1 8.4 3l2.5-5.2c-2.9-2.3-6.5-3.5-10.8-3.5-3.7 0-6.7.8-8.9 2.5-2.2 1.7-3.3 3.9-3.3 6.7 0 2.2.7 4 2.2 5.3 1.5 1.3 3.9 2.4 7.3 3.2l3.2.8c1.6.4 2.7.8 3.3 1.2.6.4.9 1 .9 1.9 0 1-.4 1.7-1.3 2.2-.9.5-2.2.8-4 .8-3.3 0-6.3-1.2-9.1-3.7L20 40z" fill="#FAF7F0"/>
</svg>
